<svg width="162" height="54" viewBox="0 0 162 54" fill="none" xmlns="http://www.w3.org/2000/svg">
<g opacity="0.4">
<path d="M39.4764 15H37.3484V4.216H41.2684C43.7484 4.216 45.3804 5.352 45.3804 7.656C45.3804 9.896 43.7324 11.176 41.2844 11.176H39.4764V15ZM39.4764 9.48H41.1244C42.3884 9.48 43.2204 8.888 43.2204 7.656C43.2204 6.248 42.2924 5.912 40.7884 5.912H39.4764V9.48ZM50.0708 15.192C47.5908 15.192 46.0388 13.576 46.0388 10.872C46.0388 8.152 47.5908 6.552 50.0708 6.552C52.5508 6.552 54.0868 8.152 54.0868 10.872C54.0868 13.576 52.5508 15.192 50.0708 15.192ZM50.0708 13.624C51.3348 13.624 51.9588 12.632 51.9588 10.872C51.9588 9.112 51.3348 8.104 50.0708 8.104C48.8068 8.104 48.1668 9.112 48.1668 10.872C48.1668 12.632 48.8068 13.624 50.0708 13.624ZM65.4462 15H63.1262L61.4942 8.856L59.8622 15H57.5262L54.9982 6.728H57.2222L58.8062 12.856L60.3422 6.728H62.6942L64.2302 12.872L65.7982 6.728H67.9582L65.4462 15ZM76.7869 11.32H71.0909C71.1549 12.808 71.8109 13.624 72.9949 13.624C73.9869 13.624 74.4989 13.144 74.6749 12.392H76.7549C76.4029 14.136 75.1229 15.192 73.0589 15.192C70.5149 15.192 68.9469 13.608 68.9469 10.936C68.9469 8.168 70.5629 6.552 73.0589 6.552C75.3789 6.552 76.8349 7.96 76.8349 10.632L76.7869 11.32ZM71.1229 10.04H74.6909C74.5949 8.824 74.1469 8.104 72.9949 8.104C71.9229 8.104 71.2989 8.808 71.1229 10.04ZM80.8023 15H78.7223V6.728H80.7063V8.424C81.2183 7.064 82.0343 6.552 82.9143 6.552C83.0903 6.552 83.3783 6.568 83.5863 6.648V8.424H82.6903C81.5703 8.424 80.8023 9.176 80.8023 10.728V15ZM92.2088 11.32H86.5128C86.5768 12.808 87.2328 13.624 88.4168 13.624C89.4088 13.624 89.9208 13.144 90.0968 12.392H92.1768C91.8248 14.136 90.5448 15.192 88.4808 15.192C85.9368 15.192 84.3688 13.608 84.3688 10.936C84.3688 8.168 85.9848 6.552 88.4808 6.552C90.8008 6.552 92.2568 7.96 92.2568 10.632L92.2088 11.32ZM86.5448 10.04H90.1128C90.0168 8.824 89.5688 8.104 88.4168 8.104C87.3448 8.104 86.7208 8.808 86.5448 10.04ZM101.584 15H99.6002V13.416C98.9922 14.696 98.0482 15.192 96.8962 15.192C95.1202 15.192 93.6482 13.976 93.6482 10.856C93.6482 7.848 95.1202 6.552 96.8962 6.552C98.0482 6.552 99.0082 7.032 99.5682 8.232L99.5042 7.064V3.48H101.584V15ZM97.5842 13.64C98.7522 13.64 99.5202 12.856 99.5202 10.856C99.5202 8.888 98.7682 8.104 97.5842 8.104C96.5602 8.104 95.7762 8.936 95.7762 10.856C95.7762 12.808 96.5602 13.64 97.5842 13.64ZM109.409 15H107.425V3.48H109.505V7.064L109.425 8.248C110.001 7.032 110.961 6.552 112.113 6.552C113.905 6.552 115.361 7.848 115.361 10.856C115.361 13.976 113.889 15.192 112.113 15.192C110.945 15.192 109.985 14.696 109.409 13.432V15ZM111.425 13.64C112.449 13.64 113.233 12.808 113.233 10.856C113.233 8.936 112.449 8.104 111.425 8.104C110.241 8.104 109.489 8.888 109.489 10.856C109.489 12.856 110.257 13.64 111.425 13.64ZM119.911 18.392H117.879L119.351 14.664L116.263 6.728H118.471L120.423 12.568L122.439 6.728H124.615L119.911 18.392Z" fill="#1D428A"/>
<path d="M0.00012207 27.033L16.9782 27.0401C17.042 27.0485 17.105 27.0619 17.1669 27.08V31.7158H5.64377V47.6963H17.171V52.4305H0.00012207V27.033Z" fill="#1D428A"/>
<path d="M93.8991 52.5732C89.8075 52.5732 85.7163 52.5732 81.6256 52.5732C79.8875 52.5826 78.1661 52.2229 76.5692 51.5166C74.9723 50.8103 73.5343 49.7726 72.3451 48.4685C71.1558 47.1643 70.241 45.6218 69.6578 43.9373C69.0745 42.2528 68.8355 40.4626 68.9555 38.6787C69.3716 32.0169 74.8877 26.6306 81.3843 26.6106C89.7062 26.5868 98.0281 26.5868 106.35 26.6106C112.879 26.6249 118.306 31.8571 118.841 38.6117C119.366 45.2093 114.761 51.289 108.383 52.3906C107.653 52.5104 106.915 52.5691 106.175 52.5661C102.082 52.5818 97.9893 52.5732 93.8991 52.5732ZM93.9199 31.8842C89.8292 31.8842 85.739 31.8842 81.6492 31.8842C77.4161 31.8927 74.0735 35.2857 74.0666 39.5676C74.0666 43.8895 77.3953 47.2882 81.6797 47.2911C89.8371 47.2968 97.9944 47.2968 106.152 47.2911C106.523 47.2973 106.894 47.274 107.261 47.2212C111.284 46.5691 114.023 43.0605 113.722 38.9669C113.418 34.919 110.139 31.8842 106.05 31.8842C102.006 31.8842 97.962 31.8842 93.9185 31.8842H93.9199Z" fill="#1D428A"/>
<path d="M19.6135 52.382V27.0572H21.3792C22.1892 27.0572 22.9992 27.0801 23.8064 27.0473C24.2225 27.0301 24.468 27.1742 24.7024 27.5352C27.9054 32.4492 31.1177 37.357 34.3392 42.2587C34.4543 42.4356 34.5736 42.6083 34.8024 42.9464V27.1086H40.0189V52.4305C38.4738 52.4305 36.955 52.4477 35.4418 52.4091C35.2615 52.4091 35.0465 52.1238 34.9161 51.9269C31.7187 47.0642 28.5286 42.1988 25.3459 37.3304C25.217 37.1335 25.0838 36.9395 24.8355 36.5699V52.382H19.6135Z" fill="#1D428A"/>
<path d="M137.052 42.778C138.599 45.9013 140.187 49.106 141.835 52.4305C140.158 52.4305 138.597 52.3763 137.041 52.4533C136.227 52.4933 135.839 52.2093 135.495 51.4545C134.423 49.1145 133.244 46.8259 132.14 44.5016C131.912 44.0222 131.642 43.8609 131.133 43.8781C129.915 43.918 128.696 43.8909 127.399 43.8909V52.3948H122.153V27.1328C126.364 27.0943 130.579 26.5863 134.695 27.3768C142.091 28.8036 142.61 37.279 139.272 40.8732C138.628 41.5695 137.833 42.1174 137.052 42.778ZM127.436 39.3037C129.249 39.3037 131.005 39.4249 132.739 39.2694C134.592 39.1039 135.761 37.5886 135.807 35.6595C135.857 33.5963 134.815 31.9912 132.912 31.7714C131.122 31.5645 129.292 31.7272 127.436 31.7272V39.3037Z" fill="#1D428A"/>
<path d="M144.613 52.382V27.0957H161.097V31.7243H149.915V37.4145H158.978V41.8919H149.908V47.7219H161.492V52.3805L144.613 52.382Z" fill="#1D428A"/>
<path d="M65.9069 36.1074H60.66C60.5989 35.9434 60.5213 35.755 60.4575 35.561C59.7445 33.308 58.3146 31.8512 55.9983 31.5173C53.682 31.1835 51.6986 31.9183 50.2645 33.9016C49.3408 35.1743 48.9052 36.6468 48.7527 38.2035C48.51 40.6861 48.7027 43.1046 50.0523 45.2763C51.4393 47.5021 53.4906 48.3083 55.9595 47.9701C58.3035 47.6491 59.7515 46.178 60.481 43.8979C60.5462 43.6953 60.7584 43.3985 60.9138 43.3943C62.5518 43.3586 64.1898 43.3714 65.8986 43.3714C65.7765 44.9335 65.2841 46.4409 64.4645 47.7618C62.7196 50.5755 60.1426 52.0537 56.9928 52.4989C54.1578 52.8998 51.4004 52.5802 48.8678 51.1091C45.969 49.4255 44.3434 46.773 43.6652 43.4827C42.9384 39.9513 43.0938 36.4913 44.6458 33.1824C46.3102 29.6296 49.166 27.6763 52.8831 27.0542C56.0024 26.5334 59.0191 26.853 61.7238 28.7279C64.0789 30.3588 65.3813 32.6888 65.882 35.5296C65.9005 35.7216 65.9088 35.9145 65.9069 36.1074Z" fill="#1D428A"/>
<path d="M10.3082 37.4631H14.5066V41.8192H10.3082V37.4631Z" fill="#1D428A"/>
</g>
</svg>
