<svg width="25" height="25" viewBox="0 0 25 25" fill="none" xmlns="http://www.w3.org/2000/svg">
<g id="Instagram">
<g id="back">
<path id="path-1" d="M0 12.5C0 5.59644 5.59644 0 12.5 0C19.4036 0 25 5.59644 25 12.5C25 19.4036 19.4036 25 12.5 25C5.59644 25 0 19.4036 0 12.5Z" fill="url(#paint0_linear_2929_74)"/>
</g>
<g id="Shape Clipped">
<mask id="mask0_2929_74" style="mask-type:luminance" maskUnits="userSpaceOnUse" x="0" y="0" width="25" height="25">
<path id="path-1_2" fill-rule="evenodd" clip-rule="evenodd" d="M0 12.5C0 5.59644 5.59644 0 12.5 0C19.4036 0 25 5.59644 25 12.5C25 19.4036 19.4036 25 12.5 25C5.59644 25 0 19.4036 0 12.5Z" fill="white"/>
</mask>
<g mask="url(#mask0_2929_74)">
<path id="Shape" fill-rule="evenodd" clip-rule="evenodd" d="M12.5003 5.83325C10.6897 5.83325 10.4625 5.84117 9.75138 5.87353C9.04165 5.90603 8.5572 6.01839 8.13331 6.18326C7.69483 6.35354 7.32288 6.58132 6.95233 6.95201C6.58149 7.32257 6.35371 7.69452 6.18287 8.13286C6.01759 8.55689 5.90509 9.04148 5.87315 9.75093C5.84134 10.4621 5.83301 10.6894 5.83301 12.5C5.83301 14.3106 5.84106 14.5371 5.87329 15.2482C5.90593 15.9579 6.01829 16.4424 6.18301 16.8663C6.35343 17.3048 6.58121 17.6767 6.95191 18.0473C7.32233 18.4181 7.69428 18.6464 8.13248 18.8167C8.55665 18.9816 9.04124 19.0939 9.75083 19.1264C10.4619 19.1588 10.689 19.1667 12.4995 19.1667C14.3102 19.1667 14.5367 19.1588 15.2478 19.1264C15.9576 19.0939 16.4426 18.9816 16.8667 18.8167C17.3051 18.6464 17.6765 18.4181 18.0469 18.0473C18.4177 17.6767 18.6455 17.3048 18.8163 16.8664C18.9802 16.4424 19.0927 15.9578 19.1261 15.2484C19.158 14.5372 19.1663 14.3106 19.1663 12.5C19.1663 10.6894 19.158 10.4622 19.1261 9.75107C19.0927 9.04134 18.9802 8.55689 18.8163 8.133C18.6455 7.69452 18.4177 7.32257 18.0469 6.95201C17.6761 6.58118 17.3052 6.3534 16.8663 6.18326C16.4413 6.01839 15.9566 5.90603 15.2469 5.87353C14.5357 5.84117 14.3093 5.83325 12.4982 5.83325H12.5003ZM12.278 7.03463H12.278L12.5002 7.0347C14.2802 7.0347 14.4912 7.04108 15.1941 7.07303C15.8441 7.10275 16.1969 7.21136 16.4319 7.30261C16.743 7.42345 16.9648 7.5679 17.198 7.80123C17.4314 8.03457 17.5758 8.25679 17.6969 8.56791C17.7882 8.80263 17.8969 9.15541 17.9265 9.80542C17.9585 10.5082 17.9654 10.7193 17.9654 12.4985C17.9654 14.2777 17.9585 14.4888 17.9265 15.1916C17.8968 15.8416 17.7882 16.1944 17.6969 16.4291C17.5761 16.7402 17.4314 16.9617 17.198 17.1949C16.9647 17.4283 16.7432 17.5727 16.4319 17.6936C16.1972 17.7852 15.8441 17.8936 15.1941 17.9233C14.4913 17.9552 14.2802 17.9622 12.5002 17.9622C10.7201 17.9622 10.5091 17.9552 9.8063 17.9233C9.15629 17.8933 8.80351 17.7847 8.56837 17.6934C8.25725 17.5726 8.03503 17.4281 7.80169 17.1948C7.56836 16.9615 7.42391 16.7398 7.3028 16.4285C7.21155 16.1938 7.10279 15.841 7.07321 15.191C7.04127 14.4882 7.03488 14.2771 7.03488 12.4968C7.03488 10.7165 7.04127 10.5065 7.07321 9.80375C7.10293 9.15375 7.21155 8.80096 7.3028 8.56596C7.42363 8.25485 7.56836 8.03262 7.80169 7.79929C8.03503 7.56595 8.25725 7.42151 8.56837 7.30039C8.80337 7.20873 9.15629 7.10039 9.8063 7.07053C10.4213 7.04275 10.6596 7.03442 11.9022 7.03303V7.0347C12.0182 7.03451 12.1431 7.03457 12.2779 7.03463H12.2779H12.278ZM15.2589 8.94144C15.2589 8.49963 15.6173 8.14171 16.0589 8.14171V8.14143C16.5006 8.14143 16.8589 8.49976 16.8589 8.94144C16.8589 9.38311 16.5006 9.74144 16.0589 9.74144C15.6173 9.74144 15.2589 9.38311 15.2589 8.94144ZM12.5001 9.07649C10.6094 9.07656 9.07659 10.6095 9.07659 12.5001C9.07659 14.3908 10.6095 15.9231 12.5002 15.9231C14.391 15.9231 15.9233 14.3908 15.9233 12.5001C15.9233 10.6094 14.3908 9.07649 12.5001 9.07649ZM14.7223 12.5001C14.7223 11.2727 13.7272 10.2778 12.5 10.2778C11.2726 10.2778 10.2778 11.2727 10.2778 12.5001C10.2778 13.7273 11.2726 14.7223 12.5 14.7223C13.7272 14.7223 14.7223 13.7273 14.7223 12.5001Z" fill="white"/>
</g>
</g>
</g>
<defs>
<linearGradient id="paint0_linear_2929_74" x1="12.5" y1="-1.36788e-07" x2="12.2396" y2="24.4792" gradientUnits="userSpaceOnUse">
<stop stop-color="#6714C9"/>
<stop offset="0.0001" stop-color="#6D13C3"/>
<stop offset="0.262162" stop-color="#D10860"/>
<stop offset="0.577347" stop-color="#F14E28"/>
<stop offset="0.916667" stop-color="#F8CB56"/>
</linearGradient>
</defs>
</svg>
